<?xml version="1.0" encoding="utf-8"?>
<!DOCTYPE svg PUBLIC "-//W3C//DTD SVG 20010904//EN" "http://www.w3.org/TR/2001/REC-SVG-20010904/DTD/svg10.dtd">
<svg version="1.0" xmlns="http://www.w3.org/2000/svg" width="419px" height="196px" viewBox="0 0 419 196" preserveAspectRatio="xMidYMid meet">
 <g fill="#ffffff">
  <path d="M85.5 173 c-0.3 -0.5 0.2 -1 1.2 -1.1 2.7 -0.2 -2.5 -1.7 -6.7 -1.9 -2.6 -0.2 -2.9 -0.4 -1.2 -0.7 2.2 -0.4 2.3 -0.5 0.5 -1.8 -1.4 -1.2 -1.5 -1.4 -0.3 -1.5 0.9 0 2.3 0.9 3.3 2 1.3 1.6 3.1 2 8.4 2.2 4 0.1 5.3 0.3 3.1 0.5 -2 0.2 -4.2 1.1 -4.8 1.9 -1.4 1.6 -2.6 1.8 -3.5 0.4z"/>
  <path d="M99.3 171.6 c1.8 -1.4 1.8 -1.4 0 -1.9 -1 -0.3 -0.2 -0.5 1.7 -0.6 1.9 -0.1 4.6 -0.4 6 -0.6 1.5 -0.3 1.1 0 -0.9 0.8 -1.9 0.7 -3.7 1.9 -3.9 2.5 -0.2 0.7 -1.3 1.2 -2.5 1.2 -2.1 -0.1 -2.1 -0.1 -0.4 -1.4z"/>
  <path d="M67 169.1 c0 -1.5 4.9 -2.2 6.8 -1.1 1.6 1.1 1.6 1.1 0 0.6 -1 -0.3 -2 -0.1 -2.3 0.4 -0.8 1.3 -4.5 1.3 -4.5 0.1z"/>
  <path d="M92 168 c-1.2 -0.8 -1.1 -1 0.7 -1 1.2 0 2.5 0.5 2.8 1 0.8 1.3 -1.5 1.3 -3.5 0z"/>
  <path d="M117.3 167.2 c1.9 -2 1.8 -2.1 -0.5 -1.5 -1.2 0.2 0 -0.7 2.7 -2 3.8 -2 4.5 -2.6 2.7 -2.6 -1.4 -0.1 -2 -0.5 -1.7 -1.2 0.4 -0.5 1.9 -0.8 3.4 -0.4 2.1 0.4 3.9 -0.3 8.4 -3.5 3.1 -2.3 5.7 -4.3 5.7 -4.6 0 -0.2 -1.2 -0.1 -2.6 0.2 -1.9 0.5 -2.5 0.4 -2 -0.5 0.4 -0.6 1.8 -1.1 3.2 -1.1 2.4 0 6.5 -3.5 8.6 -7.3 0.8 -1.6 0.7 -1.7 -1.1 -0.7 -1.2 0.6 -2.1 0.7 -2.1 0.2 0 -1.4 2.6 -3.3 4 -3 0.7 0.2 2.8 -2.2 4.6 -5.2 3.6 -5.9 4.3 -8 1.9 -6 -1.2 1 -1.5 0.9 -1.5 -0.5 0 -0.9 0.9 -1.9 2 -2.2 1.8 -0.5 3 -3 4.5 -9.8 0.6 -2.9 0.6 -2.9 -0.9 -1 -1.3 1.7 -1.5 1.8 -1.6 0.3 0 -0.9 0.6 -2.1 1.4 -2.5 0.8 -0.4 1.6 -1.7 2 -2.8 0.3 -1.1 0.4 0.2 0.2 2.9 -0.2 2.7 0.1 5.7 0.7 6.6 0.6 1 0.7 2.5 0.2 3.6 -0.8 1.7 -0.9 1.6 -1.3 -0.6 -0.3 -2.1 -0.9 -1.4 -2.9 4 -1.4 3.6 -2.7 7.9 -2.8 9.5 -0.2 1.7 -0.4 3.3 -0.4 3.8 -0.1 0.4 -0.6 0.7 -1.2 0.7 -0.6 0 -0.8 -0.9 -0.4 -2.2 0.4 -1.3 -0.7 -0.3 -2.4 2.2 -1.7 2.5 -3.1 5.3 -3.1 6.2 0 2.3 -1.1 4.8 -2.1 4.8 -0.4 0 -0.5 -0.8 -0.2 -1.7 0.4 -1 -2 0.6 -5.3 3.6 -3.2 3 -5.8 5.8 -5.7 6.2 0.1 0.3 -0.7 1.5 -1.7 2.4 -2.2 2 -2.8 0.7 -0.7 -1.4 0.6 -0.8 -1.1 -0.1 -3.9 1.4 -2.8 1.6 -5.5 3.7 -6 4.8 -0.5 1.2 -1.6 2.3 -2.4 2.5 -1.1 0.4 -1.1 0 0.3 -1.6z"/>
  <path d="M111 167 c1.2 -0.7 0.8 -1 -1.5 -1 -2.5 -0.1 -2.7 -0.2 -1.2 -1.1 1.2 -0.7 2.3 -0.6 3.8 0.4 1.7 1.3 1.8 1.5 0.4 2.1 -2.4 0.9 -3.2 0.7 -1.5 -0.4z"/>
  <path d="M65 164.8 c-2.2 -2.4 -2.6 -3.8 -1 -3.8 0.6 0 1.5 1.1 2 2.4 0.5 1.3 1.5 2.6 2.2 2.9 0.9 0.4 0.9 0.6 0.1 0.6 -0.7 0.1 -2.1 -0.9 -3.3 -2.1z"/>
  <path d="M54.8 163.9 c-0.9 -0.6 -0.6 -0.9 1.2 -0.9 1.9 0 1.1 -0.9 -4.3 -4.4 -3.8 -2.5 -7.8 -4.6 -8.9 -4.8 -1.2 -0.2 -2.3 -0.9 -2.6 -1.6 -0.4 -1.2 0 -1.2 1.9 -0.1 1.8 0.9 1.4 0.1 -1.6 -3.2 -2.2 -2.4 -4.4 -4.5 -5 -4.5 -0.5 -0.1 -1.5 -0.2 -2.1 -0.3 -0.7 0 -1.4 -0.8 -1.8 -1.6 -0.5 -1.3 -0.2 -1.4 1.6 -0.4 l2.1 1.1 -2.1 -3.3 c-1.2 -1.9 -3 -5.1 -4 -7.1 -0.9 -2.1 -2.2 -3.8 -2.9 -3.8 -1.2 0 -3.8 -3.8 -3.1 -4.5 0.9 -0.9 4.8 3.6 6.6 7.6 1.6 3.4 2.1 3.9 2.1 2.1 0.1 -1.3 0.5 -2 1.1 -1.7 0.6 0.4 0.9 1.9 0.8 3.4 -0.2 2.7 0.8 4.7 5.1 10 l1.9 2.5 -0.5 -2.9 c-0.4 -1.9 -0.2 -2.6 0.6 -2.1 0.6 0.4 1.1 2 1.1 3.6 0 2.1 1.2 3.8 4.6 6.9 2.6 2.3 5.2 4.1 5.7 4.1 0.7 0 0.7 -0.4 -0.1 -1.2 -1.6 -1.6 -1.5 -2.9 0.2 -2.2 0.8 0.3 1.6 1.5 1.8 2.7 0.2 1.4 2 3.1 5 4.7 l4.6 2.5 -3.8 0.1 c-2.1 0.1 -4.4 -0.2 -5.2 -0.7z"/>
  <path d="M201.1 150.9 c-9.9 -1.9 -15.6 -10.2 -14.9 -21.9 0.4 -7.7 2.8 -12.1 8.6 -16 4.8 -3 15.1 -3.9 20.5 -1.7 3.4 1.5 3.7 1.9 3.7 5.6 0 4.8 -1.3 5.3 -3 1.2 -2.8 -7 -13.4 -8.1 -19.6 -2 -4.2 4 -5.8 8.7 -5.2 14.9 0.6 6.2 3.6 11.9 7.8 14.8 4 2.7 11.6 3 16.1 0.6 3.2 -1.6 4.6 -1.4 3.4 0.5 -2 3.4 -10.7 5.3 -17.4 4z"/>
  <path d="M230.3 151 c-3.2 -1.3 -5.5 -5.3 -4.7 -8.4 0.8 -3.5 2.5 -4.6 9.7 -6.6 5.9 -1.6 6.2 -1.8 6.5 -5.1 0.7 -7.7 -6.8 -10.1 -12 -3.9 l-2.8 3.4 0 -3.2 c0 -2.1 0.6 -3.5 2 -4.2 2.7 -1.5 11.2 -1.5 13.8 -0.1 2.8 1.5 4.2 7 4.2 16.8 0 7.2 0.3 8.4 2 9.5 4.3 2.7 1.4 3.8 -3.4 1.3 -2.5 -1.3 -3.3 -1.3 -7.3 0 -4.9 1.7 -5 1.7 -8 0.5z m10.5 -4.2 c0.8 -0.7 1.2 -2.7 1 -5.2 -0.3 -3.9 -0.4 -4.1 -3.3 -3.8 -3.5 0.3 -7.9 3.2 -8.3 5.5 -0.2 0.9 0.6 2.5 1.8 3.7 2.3 2.3 5.9 2.1 8.8 -0.2z"/>
  <path d="M289.8 151 c-6.8 -1.2 -9.9 -5.4 -10.4 -13.9 -0.7 -9.3 4.5 -15.3 13.1 -15.3 5.6 0 9.2 2.2 11.1 6.9 2.7 6.4 1.6 7.3 -9.2 7.3 -10.7 0 -11.5 0.5 -9 6.3 2.4 5.9 8.8 8 15.9 5.2 2.5 -1 2.1 1 -0.5 2.3 -3.4 1.6 -6.9 2 -11 1.2z m9.3 -18.2 c0.5 -5.2 -2 -8.8 -6.2 -8.8 -4.1 0 -5.8 0.9 -7.4 4.1 -2.8 5.4 -2.3 5.9 6 5.9 5.3 0 7.5 -0.4 7.6 -1.2z"/>
  <path d="M355 150.9 c-1.3 -0.6 -2.7 -1.2 -3 -1.5 -0.3 -0.3 -0.7 -5.8 -1 -12.2 -0.5 -11.2 -0.6 -11.7 -2.7 -12 -1.3 -0.2 -2.3 -1 -2.3 -1.7 0 -0.7 1 -1.5 2.3 -1.7 1.8 -0.2 2.3 -1 2.5 -4.3 0.5 -6 1.8 -6.3 3.2 -0.6 l1.2 5.1 4.9 0 c3.7 0 4.9 0.4 4.9 1.5 0 1.1 -1.2 1.5 -5 1.5 l-5 0 0 10.3 c0 12.4 0.9 14.3 6.4 13.4 3.9 -0.6 5 0.8 1.4 1.8 -4.5 1.3 -5.3 1.3 -7.8 0.4z"/>
  <path d="M379.5 151.1 c-7.2 -1.8 -10.5 -6.2 -10.5 -14.3 0 -9.2 5.2 -15 13.4 -15 7.6 0 12.4 4.8 11.4 11.3 -0.3 2.3 -0.7 2.4 -10.2 2.7 l-9.8 0.3 0.5 3.6 c0.9 5.4 4.7 8.7 9.9 8.8 2.4 0 5.3 -0.4 6.6 -0.8 3.2 -1.2 2.8 0.8 -0.5 2.1 -4.3 1.7 -7.5 2.1 -10.8 1.3z m9.5 -19.9 c0 -1.5 -0.7 -3.8 -1.6 -5 -3.4 -4.9 -13.4 -1 -13.4 5.3 0 2.5 0.1 2.5 7.5 2.5 l7.5 0 0 -2.8z"/>
  <path d="M255.3 149.8 l2.7 -1 0 -12.4 c0 -11.7 -0.1 -12.4 -2 -12.4 -1.1 0 -2 -0.4 -2 -1 0 -0.5 1.6 -1 3.5 -1 1.9 0 3.8 0 4.3 0 0.4 -0.1 0.8 0.8 1 1.9 0.3 2 0.4 2 3 0.1 2.7 -1.9 4.2 -2.3 7.5 -2.1 1.2 0.1 1.7 1 1.7 3.2 l0 3 -2.9 -1.7 c-6.1 -3.6 -9.2 0.9 -9.2 13.1 -0.1 4.8 0.3 9.1 0.8 9.5 0.4 0.5 1.9 1 3.3 1.3 1.4 0.2 -1.3 0.5 -6 0.5 -6.8 0 -8 -0.2 -5.7 -1z"/>
  <path d="M310.7 150 c3 -1.2 3.4 -3.6 3.1 -15.5 -0.3 -9.5 -0.4 -10 -2.5 -10.3 -3.6 -0.5 -2.7 -2.2 1.2 -2.2 1.9 0 3.8 0 4.3 0 0.4 -0.1 0.8 0.8 1 1.9 0.3 2.1 0.3 2.1 3.2 0 1.8 -1.4 4.2 -2.1 6.9 -2.1 8.7 0.1 11.1 3.9 11.1 17.6 0 9.4 0 9.4 2.8 10.4 2.3 0.9 1.6 1 -4.3 1.1 -5.2 0 -6.6 -0.2 -5.2 -1 1.4 -0.8 1.7 -2.5 1.7 -11.3 0 -11.7 -0.7 -13.4 -6.2 -14.2 -3.2 -0.6 -4.1 -0.2 -6.8 2.4 -2.9 3 -3 3.3 -3 12.5 0 8.8 0.2 9.5 2.3 10.5 1.8 0.9 1 1.1 -4.8 1.1 -5.1 0 -6.4 -0.3 -4.8 -0.9z"/>
  <path d="M50.4 126.8 c2.4 -3.3 2.4 -46.3 0 -49.6 -1.5 -2.2 -1.5 -2.2 4.1 -2.2 5.6 0 5.6 0 4.1 2.2 -1.2 1.7 -1.6 4.8 -1.6 12.3 l0 10 10.5 -10.5 c7.3 -7.2 10.4 -11 10.1 -12.2 -0.3 -1.5 0.3 -1.8 4.7 -1.8 l5.2 0 -3 1.9 c-1.6 1 -6.8 5.7 -11.4 10.4 l-8.5 8.6 8.4 12.8 c4.6 7 10.1 14.5 12.3 16.6 3.5 3.2 3.7 3.7 1.8 3.7 -5.9 0 -8.6 -2.5 -17.8 -16.2 -8.9 -13.3 -8.9 -13.4 -10.6 -11.2 -2.4 3.1 -2.5 21.9 -0.1 25.2 1.5 2.2 1.5 2.2 -4.1 2.2 -5.6 0 -5.6 0 -4.1 -2.2z"/>
  <path d="M104.7 126.6 c-6 -3 -9.2 -5.9 -12.5 -11.6 -2.4 -3.9 -2.7 -5.6 -2.7 -13 0 -9.4 1.3 -12.9 6.9 -18.8 6.6 -7.1 16.8 -10 27.9 -8.1 l6.7 1.2 0 4.6 0 4.6 -1.9 -3.1 c-2.5 -4 -7.6 -5.8 -13.9 -4.9 -10.8 1.6 -17.2 7.3 -19.8 17.6 -1.5 6.1 -1.5 7.1 0 12.1 3.2 11 12.1 18.8 21.8 19 6.6 0.1 11.4 -1.8 13.7 -5.5 l2.1 -3.2 0 4.6 0 4.6 -5.1 1.1 c-8.4 2 -17.7 1.5 -23.2 -1.2z"/>
  <path d="M25.6 124.5 c-0.7 -2 0.4 -7.5 1.5 -7.5 1.3 0 1.1 3.7 -0.1 4.5 -0.6 0.4 -0.8 1.5 -0.5 2.6 0.7 2.2 0 2.6 -0.9 0.4z"/>
  <path d="M24 118.9 c0 -0.8 -0.9 -2.2 -2 -3.2 -1.1 -0.9 -2 -2.2 -2 -2.9 0.1 -0.8 0.7 -0.5 1.5 0.6 1.1 1.5 1.5 1.6 1.6 0.5 0 -0.8 0.5 0.1 1 2 0.6 1.8 0.8 3.6 0.5 3.9 -0.3 0.3 -0.6 -0.1 -0.6 -0.9z"/>
  <path d="M22.2 107 c0 -4.5 0.2 -5 0.8 -2.5 0.4 1.7 0.8 2.2 0.9 1.3 0 -1 0.6 -1.8 1.1 -1.8 1.3 0 1.3 2.7 -0.1 3.5 -0.6 0.4 -1.4 1.7 -1.9 2.9 -0.6 1.5 -0.9 0.6 -0.8 -3.4z"/>
  <path d="M160.3 108.7 c-0.7 -1.5 -1.3 -5.1 -1.4 -8 0 -4.6 -0.2 -4.9 -1.1 -2.7 -0.7 1.6 -1.2 2 -1.5 1.2 -0.3 -0.8 0 -2.5 0.7 -3.7 0.8 -1.5 1 -3.9 0.6 -6.4 l-0.6 -4.1 2.5 2.2 c2.7 2.4 3.7 6.1 1 3.8 -1.3 -1.1 -1.4 -0.3 -0.8 6.6 0.3 4.4 1 8.2 1.5 8.5 0.6 0.4 0.8 1.7 0.6 3 -0.3 2.3 -0.3 2.3 -1.5 -0.4z"/>
  <path d="M22 99.9 c0 -0.6 -0.7 -1.7 -1.5 -2.5 -0.8 -0.8 -1.1 -2.2 -0.7 -3.2 0.6 -1.5 0.7 -1.5 1 0.2 0.3 1.5 0.6 1.6 1.3 0.5 0.6 -1 0.9 -0.2 0.9 2.4 0 2 -0.2 3.7 -0.5 3.7 -0.3 0 -0.5 -0.5 -0.5 -1.1z"/>
  <path d="M253.5 95 c-5.4 -1.6 -8.8 -6.2 -9.3 -12.5 -0.9 -10.4 4.1 -16.5 13.4 -16.5 7.2 0 11.1 2.1 13.5 7.3 4.7 10.4 -0.3 20.7 -10.6 22.1 -2.2 0.2 -5.4 0.1 -7 -0.4z m11.2 -4.3 c4.4 -3.9 3.9 -16.1 -0.8 -20.8 -2.6 -2.6 -9.2 -2.6 -11.9 0.1 -2.6 2.6 -3.3 5.9 -2.8 12.5 0.9 10.2 8.8 14.3 15.5 8.2z"/>
  <path d="M284 95.3 c-3.7 -0.7 -5 -2.2 -5 -5.4 0 -3.4 1.6 -3.9 2.5 -0.8 1 3 6.7 5.2 9.9 3.8 5.4 -2.5 4.1 -6.4 -3.6 -10.6 -2.8 -1.5 -6 -4 -7.1 -5.5 -1.8 -2.4 -1.8 -3 -0.7 -5.8 1.6 -3.9 3.7 -5 9.4 -5 6.6 0 7.6 0.7 7.6 4.9 l0 3.6 -2.6 -3.2 c-1.8 -2.4 -3.4 -3.3 -5.4 -3.3 -2.8 0 -6 2.2 -6 4.1 0 1.6 3.8 4.8 9 7.4 5.5 2.8 7.6 5.9 6.6 9.9 -1.1 4.5 -7.9 7.3 -14.6 5.9z"/>
  <path d="M314.5 95 c-1.7 -0.5 -4.4 -2.3 -6 -4 -2.3 -2.4 -3 -4.1 -3.3 -8.8 -0.7 -10.4 4.5 -16.2 14.6 -16.2 7.2 0 9.2 1.2 9.2 5.5 0 1.9 -0.4 3.5 -1 3.5 -0.5 0 -1 -0.6 -1 -1.3 0 -0.8 -1 -2.3 -2.3 -3.5 -3.4 -3.2 -8.2 -2.9 -11.8 0.7 -2.4 2.5 -2.9 3.8 -2.9 8 0 6.7 1.3 9.7 5.2 12.2 3.2 2 7.7 2.1 12.1 0.4 1 -0.4 1.7 -0.3 1.7 0.4 0 2.6 -9.4 4.6 -14.5 3.1z"/>
  <path d="M346 95.3 c-4.2 -0.8 -8.5 -4.8 -9.8 -9.1 -1.7 -5.5 -1.5 -7.9 0.8 -12.7 2.6 -5.4 6.4 -7.5 13.5 -7.5 5.3 0 6 0.3 9.6 3.9 3.7 3.7 3.9 4.2 3.9 10.1 0 6.9 -1.7 10.8 -5.9 13.3 -3 1.8 -8.5 2.7 -12.1 2z m9.7 -3.9 c4.3 -2.7 4.5 -16.4 0.3 -20.9 -2.7 -2.9 -8.3 -3.4 -11.7 -1 -6.4 4.5 -4.9 20 2.2 23.1 3.2 1.4 5.6 1.1 9.2 -1.2z"/>
  <path d="M189 93 c1.8 -1.8 2 -3.3 2 -17.9 0 -8.8 -0.3 -16.6 -0.6 -17.5 -0.3 -0.9 -1.5 -1.6 -2.5 -1.6 -1 0 -1.9 -0.4 -1.9 -0.9 0 -0.6 2.7 -0.9 6 -0.9 5.8 0.1 7.6 1 4.5 2.2 -1.2 0.4 -1.5 2.3 -1.5 8.5 0 8 0.8 9.9 3.3 8.4 2.7 -1.5 14.7 -15.8 14.7 -17.4 0 -1.2 1.2 -1.6 5 -1.7 2.8 0 5 0.3 5 0.9 0 0.5 -0.8 0.9 -1.9 0.9 -1 0 -5 3.5 -9.2 8.3 -4.1 4.5 -7.8 8.5 -8.3 8.9 -1.3 0.9 16.4 19.8 19.1 20.4 1.3 0.4 3.4 0.3 4.8 0 2.5 -0.6 2.5 -0.6 2.5 -13.1 l0 -12.5 -2.6 0 c-1.4 0 -2.3 -0.4 -1.9 -1 0.3 -0.5 2.4 -1 4.6 -1 l3.9 0 0 12.5 c0 11.2 0.2 12.7 2 14.5 2 2 2 2 -9.4 2 l-11.4 0 -7.9 -8.9 c-11.2 -12.7 -12.3 -12.9 -12.3 -1.6 0 5.4 0.4 7.8 1.6 8.9 1.4 1.5 1 1.6 -4 1.6 l-5.6 0 2 -2z"/>
  <path d="M23.1 90.3 c0 -1.5 0.3 -2.2 0.6 -1.5 0.4 1 0.8 1 1.9 0.1 1.1 -0.9 1.4 -0.8 1.4 0.4 0 0.9 -0.9 2.1 -2 2.7 -1.8 1 -2 0.8 -1.9 -1.7z"/>
  <path d="M23.2 85.4 c-0.7 -0.8 -1.2 -2.5 -1 -3.7 l0.3 -2.2 1.3 2.3 c1.7 3 1.3 5.6 -0.6 3.6z"/>
  <path d="M154.3 82.4 c0.1 -2.7 -0.2 -6 -0.6 -7.4 -0.5 -1.4 -0.5 -2 0 -1.4 0.4 0.6 1.6 1.3 2.6 1.7 0.9 0.3 1.7 1.4 1.7 2.3 0 1.3 -0.3 1.4 -1.5 0.4 -1.3 -1.1 -1.3 -0.8 -0.4 1.8 0.8 2.5 0.8 3.6 -0.5 5.3 -1.4 2.1 -1.5 1.9 -1.3 -2.7z"/>
  <path d="M25.6 79.7 c0.3 -1.2 1.4 -4.1 2.5 -6.5 1 -2.3 1.6 -4.9 1.3 -5.7 -0.3 -0.8 -0.2 -2 0.2 -2.6 0.5 -0.9 1 -0.5 1.6 1.1 0.5 1.3 0.4 2.7 -0.2 3.5 -0.5 0.6 -1.7 2.9 -2.6 5.1 l-1.6 3.9 2.1 -1.9 c1.1 -1.1 2.1 -1.5 2.1 -1 0 0.5 -1.4 2.2 -3.1 3.6 -2.9 2.6 -3 2.6 -2.3 0.5z"/>
  <path d="M150.5 69.3 c-1.2 -2.2 -1.4 -2.3 -1 -0.5 0.4 1.3 0.2 2.2 -0.4 2.2 -1.2 0 -1.4 -1.1 -1.2 -4.6 0.1 -1.1 -1.4 -4 -3.4 -6.4 -3.5 -4.2 -3.6 -4.2 -3 -1.4 0.6 2.7 0.5 2.8 -0.8 1.1 -0.8 -1 -1.3 -2.6 -1 -3.6 0.3 -1.2 -1 -3.1 -4.3 -5.9 -4.9 -4.4 -6.7 -5.2 -5.8 -2.7 0.4 0.8 0.1 1.5 -0.5 1.5 -0.6 0 -1.2 -0.4 -1.2 -1 -0.1 -0.5 -0.2 -1.6 -0.3 -2.2 0 -0.7 -2.5 -2.6 -5.4 -4.2 -5.1 -2.7 -5.3 -2.7 -4.2 -0.6 1.1 2 1 2.1 -0.9 1 -1.2 -0.6 -2.1 -1.7 -2.1 -2.5 0 -0.8 -0.5 -1.5 -1.2 -1.5 -0.6 0 -0.9 -0.3 -0.6 -0.6 0.3 -0.3 2.1 0.1 4 0.9 2 0.8 4.6 1.3 6 1 1.4 -0.3 2.9 0 3.2 0.6 0.4 0.6 0 1.1 -1 1.1 -1 0 1.3 2 5 4.5 3.8 2.4 7.2 4.3 7.6 4 0.4 -0.2 1.6 0.3 2.6 1.1 1.8 1.5 1.8 1.5 -0.3 1.1 -2 -0.4 -1.8 0 1.4 3.8 2.2 2.7 4.1 4.1 5 3.8 1.8 -0.7 3.7 1.9 2.1 2.8 -0.8 0.5 -0.3 2.1 1.6 4.9 1.5 2.3 2.5 4.4 2.3 4.7 -0.3 0.3 -1.3 -0.8 -2.2 -2.4z"/>
  <path d="M32.1 66.5 c0 -0.5 1.3 -2.7 2.9 -4.8 1.6 -2.2 2.6 -4.5 2.3 -5.2 -0.2 -0.8 -0.1 -2 0.3 -2.6 0.5 -0.9 0.9 -0.8 1.3 0.4 0.5 1.3 1.7 0.6 5.9 -3.4 2.8 -2.8 5.2 -5.6 5.2 -6.3 0 -1.4 2 -3.6 3.2 -3.6 0.5 0 0.4 0.9 -0.2 1.9 -0.9 1.7 -0.5 1.7 3.6 -0.6 2.5 -1.4 5 -3.6 5.4 -4.9 0.5 -1.3 1.7 -2.4 2.5 -2.4 1.4 0 1.3 0.5 -0.5 2.8 -1.2 1.5 -3.1 3.2 -4.3 3.9 -2.2 1.2 -2.2 1.2 0.3 1.3 2.2 0.1 2.3 0.2 0.7 1.1 -1.3 0.7 -2.2 0.7 -3.1 0 -0.9 -0.8 -2.6 -0.1 -6.2 2.3 -2.7 1.8 -5.5 4 -6.2 4.9 -1.1 1.3 -1 1.5 1 1 1.6 -0.4 2 -0.2 1.3 0.5 -0.5 0.6 -2.1 1.2 -3.4 1.4 -1.3 0.2 -3.9 2.2 -6 4.7 -3 3.7 -3.2 4.2 -1.2 3.2 1.9 -1.1 2.3 -1.1 1.9 0.1 -0.3 0.7 -1.3 1.5 -2.4 1.7 -1 0.2 -2.4 1.1 -3.1 2 -0.7 0.9 -1.2 1.2 -1.2 0.6z"/>
  <path d="M229.3 55.4 c-0.3 -0.8 -0.1 -2 0.5 -2.6 1.6 -1.6 4.2 -0.2 4.2 2.2 0 2.4 -3.8 2.8 -4.7 0.4z"/>
  <path d="M67 37.2 c2.2 -0.9 3.6 -0.9 5 -0.2 3 1.6 2.5 1.8 -3.1 1.7 l-5 -0.2 3.1 -1.3z"/>
  <path d="M99.6 35.8 c-1.4 -2 -2 -2.1 -12.3 -1.5 -5.9 0.4 -11.9 0.9 -13.3 1.2 -1.4 0.2 -0.9 -0.1 1 -0.7 1.9 -0.6 3.9 -1.8 4.3 -2.5 0.4 -0.7 1.8 -1.3 2.9 -1.3 2 0 2 0.1 0.5 1.3 -1.5 1 -0.9 1.1 3.5 0.8 3.1 -0.2 5.7 -0.9 6.3 -1.8 0.6 -0.8 2 -1.3 3.1 -1.1 1.7 0.4 1.6 0.6 -0.6 1.6 -2.4 1 -2.3 1.1 1.5 1.3 2.2 0.1 5.4 0.5 7 0.9 2.6 0.7 2.7 0.8 0.6 0.9 -2 0.1 -2.1 0.3 -1.1 1.6 1 1.2 1 1.5 -0.3 1.5 -0.9 0 -2.3 -1 -3.1 -2.2z"/>
  <path d="M86.5 36 c-0.3 -0.5 0.3 -1 1.4 -1 1.1 0 2.3 0.5 2.6 1 0.3 0.6 -0.3 1 -1.4 1 -1.1 0 -2.3 -0.4 -2.6 -1z"/>
  <path d="M108.6 36.1 c-1.8 -0.7 -1.8 -0.8 0.5 -1.4 1.3 -0.4 3.3 -0.7 4.4 -0.7 2 0.1 2 0.1 0.1 1.5 -2.2 1.7 -2.3 1.7 -5 0.6z"/>
 </g>
</svg>